<svg width="512" height="512" viewBox="0 0 512 512" fill="none" xmlns="http://www.w3.org/2000/svg">
  <rect width="512" height="512" rx="96" fill="#0A1D35"></rect>
  <circle cx="256" cy="212" r="118" fill="#FAF6EE"></circle>
  <path d="M139 310C176 329 218 339 256 339C294 339 336 329 373 310C354 364 312 392 256 392C200 392 158 364 139 310Z" fill="#D8B66C"></path>
  <path d="M158 284C194 296 225 302 256 302C287 302 318 296 354 284" stroke="#0A1D35" stroke-width="16" stroke-linecap="round"></path>
  <path d="M189 252H326L299 282H213L189 252Z" fill="#0A1D35"></path>
  <path d="M220 247V154" stroke="#0A1D35" stroke-width="13" stroke-linecap="round"></path>
  <path d="M220 165C251 179 280 191 313 198C279 212 250 218 220 220V165Z" fill="#D8B66C"></path>
  <path d="M171 247C195 224 222 210 256 210C290 210 317 224 341 247" stroke="#0A1D35" stroke-width="12" stroke-linecap="round"></path>
  <path d="M139 419H373" stroke="#D8B66C" stroke-width="18" stroke-linecap="round"></path>
  <path d="M166 444H346" stroke="#FAF6EE" stroke-width="10" stroke-linecap="round"></path>
  <text x="256" y="108" text-anchor="middle" fill="#D8B66C" font-size="58" font-family="Georgia, serif" font-weight="700">G</text>
</svg>